<svg id="b8c8ce6e-07fe-468b-9cec-18fb201cb5d1" data-name="Camada 1" xmlns="http://www.w3.org/2000/svg" viewBox="0 0 598 593"><defs><style>.bf793fac-c4a9-49ce-a42b-f6e1ec157db2{fill:#fff;}</style></defs><path class="bf793fac-c4a9-49ce-a42b-f6e1ec157db2" d="M48.46,139h-19L21.9,91.67V139H1.29V16.64h19l7.24,53.77.16-53.77H48.46ZM51,35.48a18.78,18.78,0,0,1,9.18-16.1,19,19,0,0,1,10-2.74H74.8a18.81,18.81,0,0,1,9.82,2.74,18.54,18.54,0,0,1,6.76,6.92A20.72,20.72,0,0,1,94,35.48V121a18.17,18.17,0,0,1-2.58,9,19,19,0,0,1-6.76,7.09,18.67,18.67,0,0,1-9.82,2.57H70.13A18.27,18.27,0,0,1,53.39,130,18,18,0,0,1,51,121ZM73.67,121V35.32H71.1V121Zm3.87-106.1H67.39l4-14.65H85.1Zm52.68,3.86a19.08,19.08,0,0,1,6.92,6.93,18.57,18.57,0,0,1,2.41,9.17v28H119.27V34.67h-2.58v25.6a9.17,9.17,0,0,0,1.93,5.48A72.7,72.7,0,0,0,126,74.44c2.25,2.74,4.19,5,6.12,6.92A37.13,37.13,0,0,1,137,89.09,27.54,27.54,0,0,1,138.75,96c.16,2.26.32,5.8.32,10.47V121a18,18,0,0,1-2.41,9,19,19,0,0,1-6.77,7.09,17.51,17.51,0,0,1-9.5,2.57h-4.82a18.3,18.3,0,0,1-9.83-2.57A19.07,19.07,0,0,1,99,130a18,18,0,0,1-2.41-9V98.43h20.12V121h2.58V101a9.11,9.11,0,0,0-1.61-4.67,91.72,91.72,0,0,0-6.44-8.21,30.75,30.75,0,0,1-2.9-3.38,46.4,46.4,0,0,1-3.38-4.18,35,35,0,0,1-5.47-7.89,18.88,18.88,0,0,1-2.1-6.44,78.07,78.07,0,0,1-.32-9.82V34.83a18.58,18.58,0,0,1,2.42-9.17,18.06,18.06,0,0,1,6.6-6.93,17.64,17.64,0,0,1,9.5-2.73h4.82A18.81,18.81,0,0,1,130.22,18.73ZM207.63,121a18.16,18.16,0,0,1-2.57,9,19.45,19.45,0,0,1-6.93,7.09,18.65,18.65,0,0,1-9.82,2.57h-4.67a18.29,18.29,0,0,1-9.82-2.57,19.07,19.07,0,0,1-6.76-7.09,18,18,0,0,1-2.41-9V34.83a18.78,18.78,0,0,1,9.17-16.1A18.39,18.39,0,0,1,183.64,16h4.67a19.12,19.12,0,0,1,16.59,9.66,20.84,20.84,0,0,1,2.73,9.17V75.08H187.35V34.67h-2.58V121h2.58V77.66h20.28Zm2.61-104.33h23.83a18.81,18.81,0,0,1,9.82,2.74,20.22,20.22,0,0,1,6.76,7.08,18.72,18.72,0,0,1,2.58,9v29.3a15.07,15.07,0,0,1-1.61,6.92,8.92,8.92,0,0,1-4,4,7.45,7.45,0,0,1,4,3.7,16,16,0,0,1,1.61,7.25V139H232.94V85.07h-2.57V139H210.24Zm22.7,50.55V35.32h-2.57V67.19ZM276.12,139H255.84V16.64h20.28Zm47.43,0H303.27l-1.45-41.22h-2.58L298,139H277.67l7.57-122.36h30.59Zm-23-100.95-1.29,41.06h2.58Zm86,101H366.39V78l-3.22,61H348.52L345.3,78v61H325.17V16.64H351.9L356.09,73l3.7-56.35h26.73Zm2.65-103.52a18.74,18.74,0,0,1,9.17-16.1,19,19,0,0,1,10-2.74H413a18.82,18.82,0,0,1,9.83,2.74,18.61,18.61,0,0,1,6.76,6.92,20.71,20.71,0,0,1,2.57,9.18V121a18.16,18.16,0,0,1-2.57,9,19.07,19.07,0,0,1-6.76,7.09,18.68,18.68,0,0,1-9.83,2.57h-4.66a18.86,18.86,0,0,1-10-2.57,19.07,19.07,0,0,1-6.76-7.09,18,18,0,0,1-2.41-9ZM411.87,121V35.32h-2.58V121ZM468.41,18.73a19,19,0,0,1,6.92,6.93,18.58,18.58,0,0,1,2.42,9.17v28H457.46V34.67h-2.57v25.6a9.11,9.11,0,0,0,1.93,5.48,71.74,71.74,0,0,0,7.41,8.69c2.25,2.74,4.18,5,6.11,6.92a36.3,36.3,0,0,1,4.83,7.73A27.12,27.12,0,0,1,476.94,96c.17,2.26.33,5.8.33,10.47V121a18,18,0,0,1-2.42,9,19,19,0,0,1-6.76,7.09,17.56,17.56,0,0,1-9.5,2.57h-4.83a18.29,18.29,0,0,1-9.82-2.57,19,19,0,0,1-6.76-7.09,18,18,0,0,1-2.42-9V98.43h20.13V121h2.57V101a9,9,0,0,0-1.61-4.67,89.82,89.82,0,0,0-6.44-8.21,30.72,30.72,0,0,1-2.89-3.38,46.43,46.43,0,0,1-3.39-4.18,35.62,35.62,0,0,1-5.47-7.89,18.86,18.86,0,0,1-2.09-6.44,75.72,75.72,0,0,1-.33-9.82V34.83a18.58,18.58,0,0,1,2.42-9.17,18.14,18.14,0,0,1,6.6-6.93,17.69,17.69,0,0,1,9.5-2.73h4.83A18.8,18.8,0,0,1,468.41,18.73ZM547.76,139H527.47L526,97.78h-2.58L522.16,139H501.88l7.56-122.36H540Zm-23-100.95-1.29,41.06H526ZM44.28,269a18.17,18.17,0,0,1-2.58,9,19.51,19.51,0,0,1-6.92,7.09A18.68,18.68,0,0,1,25,287.64H20.29a18.24,18.24,0,0,1-9.82-2.57A19,19,0,0,1,3.7,278a18,18,0,0,1-2.41-9V182.83a18.76,18.76,0,0,1,9.18-16.1A18.34,18.34,0,0,1,20.29,164H25a18.81,18.81,0,0,1,9.83,2.73,18.64,18.64,0,0,1,6.76,6.93,21,21,0,0,1,2.74,9.17v40.25H24V182.67H21.41V269H24V225.66H44.28Zm2.6-85.49a18.78,18.78,0,0,1,9.18-16.1,19,19,0,0,1,10-2.74h4.67a18.81,18.81,0,0,1,9.82,2.74,18.54,18.54,0,0,1,6.76,6.92,20.72,20.72,0,0,1,2.58,9.18V269a18.17,18.17,0,0,1-2.58,9,19,19,0,0,1-6.76,7.09,18.67,18.67,0,0,1-9.82,2.57H66A18.27,18.27,0,0,1,49.3,278a18,18,0,0,1-2.42-9ZM69.58,269V183.32H67V269Zm70.07,18h-19l-7.56-47.33V287H92.48V164.64h19l7.24,53.77.16-53.77h20.77Zm35.2-103.68H162V215h12.88v18.68H162v34.61h12.88V287H142.16V164.64h32.69Zm39.72,39.92,8.7,63.76h-20l-3.38-53-3.54,53h-20l8.37-63.76-8.37-58.6h20l3.54,48.14,3.38-48.14h20ZM269.78,287H249.5l-1.45-41.22h-2.58L244.18,287H223.9l7.56-122.36h30.59Zm-23-100.95-1.29,41.06h2.58ZM234.2,149.67h7.41v1.93a1.49,1.49,0,0,0,.48,1.13,1.37,1.37,0,0,0,1.13.32c1,0,2.09-.65,3.7-1.93a12.86,12.86,0,0,1,2.42-1.94,6.24,6.24,0,0,1,2.73-.64h.49a5.94,5.94,0,0,1,5.15,2.42,10.77,10.77,0,0,1,1.77,6.27V160H252.4V158c0-1-.65-1.45-1.61-1.45s-1.94.64-3.06,1.77c-1.94,1.93-3.71,2.74-5.32,2.74h-.32a7,7,0,0,1-5.8-2.42,9,9,0,0,1-2.09-6.28Zm37.2,33.81a18.78,18.78,0,0,1,9.18-16.1,19,19,0,0,1,10-2.74h4.67a18.81,18.81,0,0,1,9.82,2.74,18.54,18.54,0,0,1,6.76,6.92,20.72,20.72,0,0,1,2.58,9.18V269a18.17,18.17,0,0,1-2.58,9,19,19,0,0,1-6.76,7.09,18.67,18.67,0,0,1-9.82,2.57h-4.67A18.27,18.27,0,0,1,273.82,278a18,18,0,0,1-2.42-9ZM294.1,269V183.32h-2.57V269Zm88.37,0a18.17,18.17,0,0,1-2.58,9,19.43,19.43,0,0,1-6.92,7.09,18.67,18.67,0,0,1-9.82,2.57h-4.67a18.29,18.29,0,0,1-9.82-2.57A19,19,0,0,1,341.9,278a18,18,0,0,1-2.42-9V182.83a18.82,18.82,0,0,1,9.18-16.1,18.39,18.39,0,0,1,9.82-2.73h4.67a18.8,18.8,0,0,1,9.82,2.73,18.56,18.56,0,0,1,6.76,6.93,20.85,20.85,0,0,1,2.74,9.17v40.25H362.18V182.67h-2.57V269h2.57V225.66h20.29Zm2.61-85.49a18.72,18.72,0,0,1,9.18-16.1,18.91,18.91,0,0,1,10-2.74h4.67a18.81,18.81,0,0,1,9.82,2.74,18.61,18.61,0,0,1,6.76,6.92,20.85,20.85,0,0,1,2.58,9.18V269a18.17,18.17,0,0,1-2.58,9,19.07,19.07,0,0,1-6.76,7.09,18.67,18.67,0,0,1-9.82,2.57h-4.67a18.8,18.8,0,0,1-10-2.57,19,19,0,0,1-6.77-7.09,18,18,0,0,1-2.41-9ZM407.78,269V183.32H405.2V269ZM492,287H471.89V226l-3.22,61H454l-3.22-61v61H430.67V164.64H457.4L461.59,221l3.7-56.35H492ZM34.94,314.73a19.08,19.08,0,0,1,6.92,6.93,18.58,18.58,0,0,1,2.42,9.17v28H24V330.67H21.41v25.6a9.12,9.12,0,0,0,1.93,5.47,71,71,0,0,0,7.41,8.7c2.26,2.74,4.19,5,6.12,6.92a37.13,37.13,0,0,1,4.83,7.73A27.12,27.12,0,0,1,43.47,392c.16,2.26.32,5.8.32,10.47V417a18,18,0,0,1-2.41,9,19.07,19.07,0,0,1-6.76,7.09,17.56,17.56,0,0,1-9.5,2.57H20.29a18.24,18.24,0,0,1-9.82-2.57A19,19,0,0,1,3.7,426a18,18,0,0,1-2.41-9V394.43H21.41V417H24V397a9.14,9.14,0,0,0-1.61-4.67,93.23,93.23,0,0,0-6.44-8.21,30.75,30.75,0,0,1-2.9-3.38,47.85,47.85,0,0,1-3.38-4.18,35,35,0,0,1-5.47-7.89,18.81,18.81,0,0,1-2.1-6.44,78.07,78.07,0,0,1-.32-9.82V330.83a18.58,18.58,0,0,1,2.42-9.17,18.14,18.14,0,0,1,6.6-6.93,17.67,17.67,0,0,1,9.5-2.73h4.83A18.8,18.8,0,0,1,34.94,314.73Zm44.63,16.59H66.69V363H79.57v18.68H66.69v34.61H79.57V435H46.88V312.64H79.57Zm45.68,85.81a18.17,18.17,0,0,1-2.58,9,18.53,18.53,0,0,1-16.58,9.5h-4.83a18.85,18.85,0,0,1-10-2.57,18.56,18.56,0,0,1-6.76-6.93,18,18,0,0,1-2.42-9V312.64h20.13V417h2.57V312.64h20.45ZM186.73,435H157.91l-8.54-122.36H169.5l2.9,76.64,2.89-76.64h20.13Zm43-103.68H216.84V363h12.88v18.68H216.84v34.61h12.88V435H197V312.64h32.68Zm2.53-18.68h23.83a18.78,18.78,0,0,1,9.82,2.74,20.34,20.34,0,0,1,6.77,7.08,18.82,18.82,0,0,1,2.57,9v29.3a15.07,15.07,0,0,1-1.61,6.92,8.85,8.85,0,0,1-4,4,7.4,7.4,0,0,1,4,3.7,16,16,0,0,1,1.61,7.24V435H255V381.07h-2.58V435H232.25ZM255,363.19V331.32h-2.58v31.87Zm61.21-45.88a14.76,14.76,0,0,1,4.67,10.79v93.22a12.38,12.38,0,0,1-4.67,10c-3.06,2.57-6.93,3.7-11.43,3.7H277.85V312.64h26.89A15.94,15.94,0,0,1,316.17,317.31Zm-15.62,99v-85H298v85ZM368.36,435H348.08l-1.45-41.22h-2.58L342.77,435H322.48l7.57-122.36h30.59Zm-23-100.95-1.29,41.06h2.58Zm63-16.74A14.76,14.76,0,0,1,413,328.1v93.22a12.38,12.38,0,0,1-4.67,10c-3.06,2.57-6.92,3.7-11.43,3.7H370V312.64h26.89A15.93,15.93,0,0,1,408.3,317.31Zm-15.62,99v-85h-2.57v85Zm55.58-85H435.38V363h12.88v18.68H435.38v34.61h12.88V435H415.58V312.64h32.68ZM471.08,435H450.8V312.64h20.28Zm2.52-122.36h23.82a18.82,18.82,0,0,1,9.83,2.74,20.31,20.31,0,0,1,6.76,7.08,18.7,18.7,0,0,1,2.57,9v29.3A15.07,15.07,0,0,1,515,367.7a8.85,8.85,0,0,1-4,4,7.4,7.4,0,0,1,4,3.7,16,16,0,0,1,1.61,7.24V435H496.3V381.07h-2.58V435H473.6Zm22.7,50.55V331.32h-2.58v31.87Zm22.89-31.71a18.78,18.78,0,0,1,9.18-16.1,19,19,0,0,1,10-2.74H543a18.81,18.81,0,0,1,9.82,2.74,18.54,18.54,0,0,1,6.76,6.92,20.72,20.72,0,0,1,2.58,9.18V417a18.17,18.17,0,0,1-2.58,9,19,19,0,0,1-6.76,7.09,18.67,18.67,0,0,1-9.82,2.57h-4.67A18.27,18.27,0,0,1,521.61,426a18,18,0,0,1-2.42-9ZM541.89,417V331.32h-2.57V417ZM1.29,460.64H25.12a19,19,0,0,1,19.16,18.19v41.38a18.89,18.89,0,0,1-5.48,13.36,18.41,18.41,0,0,1-13.68,5.48H21.41v44H1.29ZM24,520.37V479.32H21.41v41.05Zm22.89-59.73H70.71a18.81,18.81,0,0,1,9.82,2.74,20.22,20.22,0,0,1,6.76,7.08,18.72,18.72,0,0,1,2.58,9v29.3a15.07,15.07,0,0,1-1.61,6.92,8.9,8.9,0,0,1-4,4,7.44,7.44,0,0,1,4,3.7,16,16,0,0,1,1.61,7.24V583H69.58V529.07H67V583H46.88Zm22.7,50.55V479.32H67v31.87Zm22.9-31.71a18.72,18.72,0,0,1,9.18-16.1,18.91,18.91,0,0,1,10-2.74h4.67a18.81,18.81,0,0,1,9.82,2.74,18.54,18.54,0,0,1,6.76,6.92,20.85,20.85,0,0,1,2.58,9.18V565a18.17,18.17,0,0,1-2.58,9,19,19,0,0,1-6.76,7.09,18.67,18.67,0,0,1-9.82,2.57h-4.67a18.8,18.8,0,0,1-10-2.57A19,19,0,0,1,94.89,574a18,18,0,0,1-2.41-9ZM115.18,565V479.32H112.6V565Zm22.89-104.33H161.9a19,19,0,0,1,19.16,18.19v41.38a18.88,18.88,0,0,1-5.47,13.36,18.44,18.44,0,0,1-13.69,5.48h-3.7v44H138.07Zm22.71,59.73V479.32H158.2v41.05Zm22.89-40.89a18.78,18.78,0,0,1,9.18-16.1,19,19,0,0,1,10-2.74h4.67a18.81,18.81,0,0,1,9.82,2.74,18.54,18.54,0,0,1,6.76,6.92,20.72,20.72,0,0,1,2.58,9.18V565a18.17,18.17,0,0,1-2.58,9,19,19,0,0,1-6.76,7.09,18.67,18.67,0,0,1-9.82,2.57h-4.67A18.27,18.27,0,0,1,186.09,574a18,18,0,0,1-2.42-9ZM206.37,565V479.32H203.8V565Zm56.55-102.24a19.08,19.08,0,0,1,6.92,6.93,18.57,18.57,0,0,1,2.41,9.17v28H252V478.67h-2.58v25.6a9.12,9.12,0,0,0,1.93,5.47,71,71,0,0,0,7.41,8.7c2.25,2.74,4.19,5,6.12,6.92a37.13,37.13,0,0,1,4.83,7.73,27.54,27.54,0,0,1,1.77,6.92c.16,2.26.32,5.8.32,10.47V565a18,18,0,0,1-2.41,9,19,19,0,0,1-6.77,7.09,17.5,17.5,0,0,1-9.49,2.57h-4.84a18.29,18.29,0,0,1-9.82-2.57,19.07,19.07,0,0,1-6.76-7.09,18,18,0,0,1-2.41-9V542.43h20.12V565H252V545a9.08,9.08,0,0,0-1.61-4.66,90,90,0,0,0-6.44-8.22,30.75,30.75,0,0,1-2.9-3.38,46.4,46.4,0,0,1-3.38-4.18,35.38,35.38,0,0,1-5.48-7.89,19,19,0,0,1-2.09-6.44,78.07,78.07,0,0,1-.32-9.82V478.83a18.57,18.57,0,0,1,2.41-9.17,18.16,18.16,0,0,1,6.61-6.93,17.63,17.63,0,0,1,9.49-2.73h4.84A18.8,18.8,0,0,1,262.92,462.73ZM295.15,583H274.86V460.64h20.29Zm45.66-103.68H329.54V583H308.93V479.32H297.66V460.64h43.15Zm2.6.16a18.78,18.78,0,0,1,9.18-16.1,19,19,0,0,1,10-2.74h4.67a18.81,18.81,0,0,1,9.82,2.74,18.54,18.54,0,0,1,6.76,6.92,20.72,20.72,0,0,1,2.58,9.18V565a18.17,18.17,0,0,1-2.58,9,19,19,0,0,1-6.76,7.09,18.67,18.67,0,0,1-9.82,2.57h-4.67A18.27,18.27,0,0,1,345.83,574a18,18,0,0,1-2.42-9ZM366.11,565V479.32h-2.57V565Z"/></svg>